<?xml version="1.0" encoding="utf-8"?><!-- Uploaded to: SVG Repo, www.svgrepo.com, Generator: SVG Repo Mixer Tools -->
<svg fill="#000000" width="800px" height="800px" viewBox="0 0 24 24" id="dartboard" data-name="Flat Color" xmlns="http://www.w3.org/2000/svg" class="icon flat-color"><path id="primary" d="M6.7,15.32,5,21.28A1,1,0,0,1,4,22a.9.9,0,0,1-.28,0A1,1,0,0,1,3,20.72l1.74-6a1,1,0,0,1,1.92.56ZM9,7a3,3,0,1,0,3,3A3,3,0,0,0,9,7ZM9,5a1,1,0,0,0,1-1V3A1,1,0,0,0,8,3V4A1,1,0,0,0,9,5Zm6,15.72-1.74-6a1,1,0,1,0-1.92.56l1.74,6A1,1,0,0,0,14,22a.9.9,0,0,0,.28,0A1,1,0,0,0,15,20.72Z" style="fill: rgb(0, 0, 0);"></path><path id="secondary" d="M21.71,11.29a1,1,0,0,1,.21,1.09A1,1,0,0,1,21,13H17a1,1,0,0,1-.71-.29L14.59,11H9A1,1,0,0,1,9,9h5.59l1.7-1.71A1,1,0,0,1,17,7h4a1,1,0,0,1,.92.62,1,1,0,0,1-.21,1.09L20.41,10ZM13.94,15a1,1,0,1,0-1.42-1.42A5,5,0,0,1,9,15,5,5,0,0,1,9,5a5,5,0,0,1,3.52,1.46A1,1,0,1,0,13.94,5a7,7,0,1,0,0,9.92Z" style="fill: rgb(44, 169, 188);"></path></svg>