<?xml version="1.0" encoding="iso-8859-1"?>
<!-- Uploaded to: SVG Repo, www.svgrepo.com, Generator: SVG Repo Mixer Tools -->
<svg fill="#000000" height="800px" width="800px" version="1.1" id="Capa_1" xmlns="http://www.w3.org/2000/svg" xmlns:xlink="http://www.w3.org/1999/xlink" 
	 viewBox="0 0 512.001 512.001" xml:space="preserve">
<g>
	<g>
		<path d="M284.95,270.39h-81.347c-3.943,0-7.152-3.208-7.152-7.152V145.996c0-4.205-3.408-7.612-7.612-7.612
			c-4.204,0-7.612,3.407-7.612,7.612v117.242c0,12.338,10.037,22.376,22.376,22.376h73.734v28.779h-48.39
			c-4.204,0-7.612,3.407-7.612,7.612c0,4.205,3.408,7.612,7.612,7.612h56.003c4.204,0,7.612-3.407,7.612-7.612v-44.003
			C292.562,273.797,289.154,270.39,284.95,270.39z"/>
	</g>
</g>
<g>
	<g>
		<path d="M504.388,258.811H491.66c-1.335-59.745-25.224-115.716-67.622-158.114c-41.849-41.848-96.922-65.655-155.794-67.549
			V11.673c0-4.205-3.408-7.612-7.612-7.612c-4.204,0-7.612,3.407-7.612,7.612v21.471c-15.54,0.505-30.976,2.55-45.99,6.115
			c-4.09,0.971-6.619,5.075-5.647,9.165c0.971,4.09,5.077,6.62,9.165,5.646c13.863-3.293,28.117-5.191,42.472-5.69v13.732
			C146.821,66.065,61.3,152.316,58.546,258.811H44.83c2.021-81.653,50.616-156.062,124.975-190.599
			c3.813-1.77,5.469-6.297,3.698-10.11s-6.298-5.471-10.11-3.698c-39.41,18.303-72.802,47.273-96.567,83.775
			c-23.437,35.997-36.252,77.599-37.225,120.632H7.612c-4.204,0-7.612,3.407-7.612,7.612c0,4.205,3.408,7.612,7.612,7.612h22.142
			c2.436,58.001,26.165,112.182,67.465,153.482c41.85,41.85,96.927,65.657,155.802,67.549v5.262c0,4.205,3.408,7.612,7.612,7.612
			c4.204,0,7.612-3.407,7.612-7.612v-5.262c58.872-1.894,113.946-25.701,155.794-67.549c41.3-41.301,65.029-95.481,67.465-153.482
			h12.885c4.204,0,7.612-3.407,7.612-7.612C512.002,262.218,508.592,258.811,504.388,258.811z M268.244,77.349
			c97.798,3.94,176.488,83.365,179.231,181.462H336.564v-24.81c0-4.205-3.408-7.612-7.612-7.612h-81.346
			c-3.943,0-7.152-3.208-7.152-7.152v-21.626h88.497c4.204,0,7.612-3.407,7.612-7.612v-44.002c0-4.205-3.408-7.612-7.612-7.612
			h-60.707V77.349z M447.291,274.037c-5.047,95.955-82.792,172.953-179.047,176.83v-77.248l60.707-0.001
			c4.204,0,7.612-3.408,7.612-7.612v-91.969H447.291z M253.021,479.83L253.021,479.83C140.8,475.921,50.086,385.956,44.994,274.036
			h13.73c5.072,104.354,89.642,188.172,194.297,192.066V479.83z M196.452,358.396v-36.39c0-4.205-3.408-7.612-7.612-7.612
			c-4.204,0-7.612,3.407-7.612,7.612v44.002c0,2.019,0.802,3.954,2.23,5.383c1.428,1.427,3.364,2.229,5.382,2.229l64.18-0.001
			v77.248c-96.258-3.874-174.007-80.875-179.054-176.832h80.32c4.204,0,7.612-3.407,7.612-7.612c0-4.205-3.408-7.612-7.612-7.612
			H73.781c2.743-98.1,81.437-177.526,179.239-181.462v61.036h-27.347c-4.204,0-7.612,3.407-7.612,7.612
			c0,4.205,3.408,7.612,7.612,7.612h95.666v28.778h-88.497c-4.204,0-7.612,3.407-7.612,7.612v29.238
			c0,12.338,10.038,22.376,22.376,22.376h73.733v116.783H196.452z M268.244,479.83v-13.729
			c104.651-3.898,189.218-87.715,194.29-192.066h13.73C471.171,385.954,380.462,475.919,268.244,479.83z M462.711,258.811
			C459.958,152.318,374.44,66.069,268.244,62.114v-13.73c113.762,3.966,205.428,96.368,208.189,210.427H462.711z"/>
	</g>
</g>
</svg>